<?xml version="1.0"?>
<svg xmlns="http://www.w3.org/2000/svg" xmlns:xlink="http://www.w3.org/1999/xlink" xmlns:svgjs="http://svgjs.com/svgjs" version="1.1" width="512" height="512" x="0" y="0" viewBox="0 0 64 64" style="enable-background:new 0 0 512 512" xml:space="preserve" class=""><g><g xmlns="http://www.w3.org/2000/svg"><g><path d="m4 14.384c0 5.027 2.985 9.555 7.606 11.535l.394.087v-4.006c-1.105 0-2-.895-2-2s.895-2 2-2v-4h-8z" fill="#db8686" data-original="#f0bc5e" style=""/></g><g><g><path d="m55 25c-2.206 0-4-1.794-4-4s1.794-4 4-4 4 1.794 4 4-1.794 4-4 4z" fill="#db8686" data-original="#f0bc5e" style=""/></g></g><g><g><path d="m39 25c-2.206 0-4-1.794-4-4s1.794-4 4-4 4 1.794 4 4-1.794 4-4 4z" fill="#db8686" data-original="#f0bc5e" style=""/></g></g><g><g><path d="m43 15c-2.206 0-4-1.794-4-4s1.794-4 4-4 4 1.794 4 4-1.794 4-4 4z" fill="#db8686" data-original="#f0bc5e" style=""/></g></g><g><circle cx="18" cy="18" r="1" fill="#000000" data-original="#000000" style="" class=""/><path d="m55 43.111v-1.111c0-3.91-2.51-7.236-6-8.475v-1.959l2.841-1.704c.939-.564 2.015-.862 3.111-.862 4.438 0 8.048-3.61 8.048-8.048 0-2.13-.624-4.192-1.806-5.963l-.194-.292v-1.162c0-1.615-.849-3.036-2.124-3.84-.54-2.802-2.793-5.028-5.644-5.504l-.658-.109c-1.457-1.938-3.735-3.082-6.179-3.082h-.604c-1.974 0-3.834.733-5.293 2.095l-.673.169c-2.069.517-3.742 1.951-4.572 3.889l-.029.007c-2.488.605-4.224 2.815-4.224 5.43 0 1.123.327 2.208.947 3.136l.851 1.274-.756 1.134c-.682 1.021-1.042 2.21-1.042 3.5 0 2.458 1.363 4.666 3.559 5.764l.85.425 1.035 1.035c1.381 1.381 3.218 2.142 5.171 2.142h2.262l3.123.781v1.278c-.329-.037-.662-.059-1-.059h-3v3c0 3.114 1.59 5.862 4 7.478v5.638c-.085.03-.169.067-.25.11l-2.14-6.171c-.271-.783-.823-1.409-1.553-1.762-.668-.323-1.416-.37-2.12-.157.024-.183.063-.365.063-.55v-.22c0-1.83-1.151-3.491-2.864-4.134l-4.068-1.526c-1.243-1.03-2.821-1.658-4.53-1.698l-10.038-3.764c-.148-.106-.301-.206-.456-.303 2.225-.287 3.956-2.173 3.956-4.476v-1.5c1.135-.197 2-1.188 2-2.379 0-.636-.258-1.258-.707-1.707l-1-1c-.187-.187-.293-.444-.293-.707v-2.172h4c1.103 0 2-.897 2-2v-2c0-1.103-.897-2-2-2h-2.22l-1.621-6.484c-.222-.893-1.02-1.516-1.94-1.516h-12.438c-.92 0-1.718.623-1.94 1.516l-1.621 6.484h-2.22c-1.103 0-2 .897-2 2v2c0 1.103.897 2 2 2h8v2.171c-1.164.413-2 1.525-2 2.829s.836 2.416 2 2.829v4.763c-1.292 1.383-2 3.175-2 5.076 0 .112.02.22.025.332h-.025v18.349c0 5.873 4.778 10.651 10.651 10.651 3.696 0 7.072-1.871 9.031-5.006l1.067-1.707 1.251 2.918v1.795c0 .352.072.686.184 1h-4.184v2h7 4 .586 24.414v-1c0-2.611-2.013-4.762-4.567-4.981-.96-.944-2.145-1.575-3.433-1.854v-4.165h1c3.859 0 7-3.141 7-7v-3h-3c-1.958 0-3.728.81-5 2.111zm-10.758-14.081-2.627-.03c-1.419 0-2.754-.553-3.758-1.557l-1.265-1.266-1.141-.569c-1.512-.755-2.451-2.279-2.451-4.037 0-.831.244-1.636.706-2.328l1.496-2.243-1.592-2.386c-.399-.598-.61-1.298-.61-2.08 0-1.634 1.108-3.045 2.695-3.432l1.078-.261.175-.525c.519-1.553 1.774-2.716 3.362-3.113l.933-.233.295-.093.195-.196c1.084-1.084 2.526-1.681 4.058-1.681h.604c1.923 0 3.707.955 4.773 2.555l.24.36 1.496.249c1.645.274 3.009 1.369 3.669 2.837-1.268-.041-2.434.445-3.315 1.327l-.672.672h-.172c-1.179 0-2.287.459-3.121 1.293l1.414 1.414c.456-.456 1.063-.707 1.707-.707h1l1.258-1.258c.478-.478 1.115-.742 1.793-.742 1.397 0 2.535 1.138 2.535 2.535v1.768l.53.796c.962 1.441 1.47 3.12 1.47 4.854 0 3.334-2.713 6.047-6.048 6.047-1.458 0-2.89.396-4.141 1.146l-1.811 1.088v-.82l2.707-2.707-1.414-1.414-1.293 1.293v-6.253l2.8-3.733-1.6-1.2-2.432 3.243-2.213-1.475-1.109 1.664 2.554 1.703v6.596l-1.445-.963-1.109 1.664 2.554 1.704v1.184zm.758 6.97v-1h1c3.712 0 6.751 2.908 6.978 6.564l-4.271-4.271-1.414 1.414 4.271 4.271c-3.656-.227-6.564-3.266-6.564-6.978zm.861 21.689-2.887-3.994 4.61-2.73 1.782 5.385c-.276.202-.544.418-.793.662-.956.053-1.872.29-2.712.677zm-.878-7.457-1.024.589-2.132-2.984c.724-.721 1.173-1.718 1.173-2.818 0-.235-.026-.465-.065-.69zm-9.305-3.859 1.573-4.195 2.502 1.001c.758.302 1.247 1.025 1.247 1.84 0 1.092-.889 1.981-1.981 1.981-1.149 0-2.271-.216-3.341-.627zm3.322-6.007v.22c0 .044-.012.087-.015.131l-2.251-.9-.043-.345c-.08-.639-.245-1.248-.475-1.822l1.216.456c.938.351 1.568 1.259 1.568 2.26zm-4.466-1.43-7.929-3.172c.827-.491 1.778-.764 2.755-.764 2.44 0 4.532 1.648 5.174 3.936zm-11.748-4.699c-.141-.646-.333-1.273-.615-1.854l3.832 1.437c-.566.289-1.098.645-1.576 1.074zm-9.232-25.237-1.076-1.721 1.174-2.348 1.535 2.457-.805 1.612zm-2.318-3.708-1.432-2.292h2.578zm3.568-2.292h2.578l-1.146 2.291zm3.75 6-1.076-1.721 1.174-2.348 2.544 4.069zm2.666-6 .944 3.775-2.36-3.775zm-12.821 1.526 1.789 2.861-.806 1.613h-2.102zm-5.399 6.474h24l.002 2h-24.002zm9 8h1v-4h8v2.172c0 .801.313 1.555.879 2.121l1 1c.077.077.121.184.121.293 0 .228-.186.414-.414.414h-1.586v2h-.586c-.645 0-1.251-.251-1.707-.707l-1.414 1.414c.834.834 1.942 1.293 3.121 1.293h.526c-.247 1.141-1.262 2-2.476 2-.678 0-1.314-.264-1.793-.742l-.965-.965-1.414 1.414.915.915-2.207-.442v-6.18h-1c-.552 0-1-.448-1-1s.448-1 1-1zm.369 10.094 3.551.71c1.983.397 3.616 1.711 4.459 3.471l-3.008-1.203-.742 1.857 18.765 7.506-1.572 4.191-19.433-7.917c-2.059-.839-3.389-2.817-3.389-5.041 0-1.334.497-2.581 1.369-3.574zm4.855 15.906h-6.224v-7.257c.721.772 1.61 1.4 2.635 1.818l5.725 2.332zm13.483 7.443c-.469-1.092-.707-2.252-.707-3.443h-2c0 1.395.273 2.751.797 4.038l-1.81 2.896c-1.591 2.545-4.334 4.066-7.336 4.066-4.77 0-8.651-3.881-8.651-8.651v-4.349h4.849l-1.673 2.434 1.648 1.133 5.432-7.901 13.498 5.499c.347.142.699.264 1.056.37l1.057 8.465h-4.207zm7.293 8.557h-4c-.552 0-1-.448-1-1v-1h4.585l1.294 1.293c.077.077.121.184.121.293 0 .228-.186.414-.414.414zm4.384 0h-1.426c.024-.135.042-.272.042-.414 0-.636-.258-1.258-.707-1.707l-1.343-1.344-1.074-8.595c.378.038.759.06 1.143.06.371 0 .724-.068 1.065-.163l2.133 2.987-.24.138c-.474.273-.813.736-.931 1.271-.118.537-.004 1.103.314 1.551l2.818 3.973c-.723.613-1.336 1.368-1.794 2.243zm15.202-2h.414c1.304 0 2.416.836 2.829 2h-16.061c1.024-1.256 2.561-2 4.232-2h.414l.525-.525c.952-.952 2.216-1.475 3.561-1.475s2.609.523 3.561 1.475zm-4.586-3.976c-.634.044-1.251.174-1.839.381l-1.677-5.067c-.099-.299-.268-.559-.484-.773v-5.09c.94.334 1.947.525 3 .525h1v3 3zm8-11.024c0 2.599-2.001 4.717-4.539 4.953l3.246-3.246-1.414-1.414-3.246 3.246c.236-2.538 2.354-4.539 4.953-4.539h1z" fill="#000000" data-original="#000000" style="" class=""/></g></g></g></svg>
