<?xml version="1.0"?>
<svg xmlns="http://www.w3.org/2000/svg" xmlns:xlink="http://www.w3.org/1999/xlink" xmlns:svgjs="http://svgjs.com/svgjs" version="1.1" width="512" height="512" x="0" y="0" viewBox="0 0 64 64" style="enable-background:new 0 0 512 512" xml:space="preserve" class=""><g><g xmlns="http://www.w3.org/2000/svg"><g><path d="m57 17h-2v-2c0-1.103-.897-2-2-2h-2c-1.103 0-2 .897-2 2v2h-2c-1.103 0-2 .897-2 2v2c0 1.103.897 2 2 2h2v2c0 1.103.897 2 2 2h2c1.103 0 2-.897 2-2v-2h2c1.103 0 2-.897 2-2v-2c0-1.103-.897-2-2-2z" fill="#db8686" data-original="#f0bc5e" style=""/></g><g><g><path d="m54 41h-3v-1c0-3.343 2.316-9 11-9h1v1c0 3.113-1.881 9-9 9z" fill="#db8686" data-original="#f0bc5e" style=""/></g></g><g><g><path d="m53 47h-2.556c-5.097 0-6.444-4.579-6.444-7v-1h1c7.908 0 8 6.16 8 6.223z" fill="#db8686" data-original="#f0bc5e" style=""/></g></g><g><g><path d="m53.556 53h-2.556v-1.777c0-.063.092-6.223 8-6.223h1v1c0 2.421-1.347 7-6.444 7z" fill="#db8686" data-original="#f0bc5e" style=""/></g></g><g><path d="m53 30.949c5.598-.507 10-5.221 10-10.949 0-6.065-4.935-11-11-11-1.325 0-2.591.248-3.769.679-4.248-5.444-10.816-8.679-17.738-8.679h-19.493c-5.514 0-10 4.486-10 10s4.486 10 10 10h.637c-.835 2.744-2.637 9.214-2.637 14v1h4v5.811c0 5.067 4.122 9.189 9.189 9.189.602 0 1.208-.061 1.802-.179l5.009-1.001v2.122c0 .967-.47 1.879-1.256 2.441l-2.752 1.966c-1.657 1.182-2.917 2.781-3.682 4.651h-9.31v-8.586l1.293 1.293 1.414-1.414-3.707-3.707-3.707 3.707 1.414 1.414 1.293-1.293v8.586h-4v-20.586l1.293 1.293 1.414-1.414-3.707-3.707-3.707 3.707 1.414 1.414 1.293-1.293v20.586h-3v2h62v-2h-10zm8-10.949c0 4.963-4.037 9-9 9s-9-4.037-9-9 4.037-9 9-9 9 4.037 9 9zm-58-9c0-4.411 3.589-8 8-8h19.493c6.159 0 12.015 2.807 15.891 7.559-3.218 1.922-5.384 5.429-5.384 9.441 0 5.417 3.939 9.92 9.1 10.824-.783 2.951-2.055 5.716-3.787 8.241.803.078 1.501.233 2.122.435 1.031-1.6 1.875-3.294 2.564-5.054v26.554h-3.28l-.033-.099c-.785-2.355-2.521-4.173-4.688-5.137v-9.402l2.024-2.428c-.392-.701-.651-1.444-.811-2.152l-2.28 2.737-7.52-7.52c1.671-1.748 2.589-4.034 2.59-6.525.001-1.194-.463-2.317-1.307-3.162-.843-.846-1.966-1.312-3.216-1.312-1.1 0-2.139.384-2.962 1.089l-.168-.616c-1.212-4.443-4.42-7.933-8.664-9.566.202-.6.316-1.24.316-1.907 0-3.309-2.691-6-6-6s-6 2.691-6 6h2c0-2.206 1.794-4 4-4s4 1.794 4 4-1.794 4-4 4h-4c-4.411 0-8-3.589-8-8zm42.565 50h-12.13c1.044-2.408 3.402-4 6.065-4s5.02 1.592 6.065 4zm-19.411-3.024 2.752-1.966c1.312-.937 2.094-2.458 2.094-4.069v-2.521l2.196-.439-.393-1.961-9.203 1.84c-.465.093-.94.14-1.411.14-3.2 0-5.917-2.104-6.846-5h2.185c3.14 0 5.962-1.744 7.366-4.553l-1.789-.895c-1.063 2.127-3.2 3.448-5.577 3.448h-2.518c-.002-.064-.01-.125-.01-.189v-7.811h-3.974c.243-4.757 2.072-10.971 2.704-13h1.27c1.921 0 3.629-.91 4.728-2.318 3.768 1.364 6.625 4.413 7.69 8.318l1.07 3.927 2.182-2.182c.479-.481 1.122-.745 1.862-.745.66 0 1.281.257 1.748.725.466.466.723 1.087.722 1.815-.001 1.964-.767 3.811-2.155 5.199l-1.261 1.261 9.414 9.414v8.726c-.49-.086-.989-.14-1.5-.14-3.721 0-7.011 2.372-8.188 5.901l-.032.099h-7.766c.629-1.195 1.523-2.227 2.64-3.024z" fill="#000000" data-original="#000000" style="" class=""/><path d="m20 26.764c-.381.762-1.147 1.236-2 1.236s-1.619-.474-2-1.236l-.105-.211-1.789.895.105.211c.722 1.444 2.174 2.341 3.789 2.341s3.067-.897 3.789-2.342l.105-.211-1.789-.895z" fill="#000000" data-original="#000000" style="" class=""/></g></g></g></svg>
