<?xml version="1.0"?>
<svg xmlns="http://www.w3.org/2000/svg" xmlns:xlink="http://www.w3.org/1999/xlink" xmlns:svgjs="http://svgjs.com/svgjs" version="1.1" width="512" height="512" x="0" y="0" viewBox="0 0 496 496" style="enable-background:new 0 0 512 512" xml:space="preserve" class=""><g>
<g xmlns="http://www.w3.org/2000/svg">
	<rect x="40.008" y="128" style="" width="328" height="16" fill="#ffffff" data-original="#f9ba48" class=""/>
	<rect x="40.008" y="168" style="" width="328" height="16" fill="#ffffff" data-original="#f9ba48" class=""/>
	<rect x="40.008" y="208" style="" width="328" height="16" fill="#ffffff" data-original="#f9ba48" class=""/>
	<rect x="40.008" y="248" style="" width="328" height="16" fill="#ffffff" data-original="#f9ba48" class=""/>
	<path style="" d="M230.576,433.432l7.712-53.984L272.008,360l32,32l-19.448,33.72L230.576,433.432z" fill="#ffffff" data-original="#f9ba48" class=""/>
</g>
<g xmlns="http://www.w3.org/2000/svg">
	<polygon style="" points="262.84,389.856 228.696,424 56.008,424 56.008,440 240.008,440 240.008,435.312    274.152,401.168  " fill="#fff9f9" data-original="#333333" class=""/>
	<path style="" d="M482.712,215.392l9.056-9.056c5.632-5.632,5.632-14.8,0-20.432l-13.672-13.672   c-5.624-5.64-14.808-5.632-20.432,0l-49.656,49.672V72h64V44c0-24.256-19.744-44-44-44h-384c-24.256,0-44,19.744-44,44v20v432h408   V290.096l63.392-63.392l2.904,2.904c2.776,2.776,4.304,6.464,4.304,10.392s-1.528,7.616-4.304,10.392l-39.952,39.952l11.312,11.312   l39.952-39.952c11.968-11.968,11.968-31.44,0-43.408L482.712,215.392z M467.888,184.648l11.472,11.472l-7.96,7.96l-11.472-11.472   L467.888,184.648z M456.008,44v12h-368V44c0-10.624-3.792-20.384-10.088-28h350.088C443.448,16,456.008,28.56,456.008,44z    M392.008,480h-376V64V44c0-15.44,12.56-28,28-28s28,12.56,28,28v12v8v8h320v165.904L268.576,361.336l34.096,34.096l89.336-89.336   V480z M302.672,349.864l11.472,11.472l-11.472,11.472L291.2,361.336L302.672,349.864z M325.456,350.016l-11.472-11.472   L448.616,203.92l11.472,11.472L325.456,350.016z" fill="#fff9f9" data-original="#333333" class=""/>
	<rect x="40.008" y="112" style="" width="328" height="16" fill="#fff9f9" data-original="#333333" class=""/>
	<rect x="40.008" y="152" style="" width="328" height="16" fill="#fff9f9" data-original="#333333" class=""/>
	<rect x="40.008" y="192" style="" width="328" height="16" fill="#fff9f9" data-original="#333333" class=""/>
	<rect x="40.008" y="232" style="" width="328" height="16" fill="#fff9f9" data-original="#333333" class=""/>
</g>
<g xmlns="http://www.w3.org/2000/svg">
</g>
<g xmlns="http://www.w3.org/2000/svg">
</g>
<g xmlns="http://www.w3.org/2000/svg">
</g>
<g xmlns="http://www.w3.org/2000/svg">
</g>
<g xmlns="http://www.w3.org/2000/svg">
</g>
<g xmlns="http://www.w3.org/2000/svg">
</g>
<g xmlns="http://www.w3.org/2000/svg">
</g>
<g xmlns="http://www.w3.org/2000/svg">
</g>
<g xmlns="http://www.w3.org/2000/svg">
</g>
<g xmlns="http://www.w3.org/2000/svg">
</g>
<g xmlns="http://www.w3.org/2000/svg">
</g>
<g xmlns="http://www.w3.org/2000/svg">
</g>
<g xmlns="http://www.w3.org/2000/svg">
</g>
<g xmlns="http://www.w3.org/2000/svg">
</g>
<g xmlns="http://www.w3.org/2000/svg">
</g>
</g></svg>
