<?xml version="1.0"?>
<svg xmlns="http://www.w3.org/2000/svg" xmlns:xlink="http://www.w3.org/1999/xlink" xmlns:svgjs="http://svgjs.com/svgjs" version="1.1" width="512" height="512" x="0" y="0" viewBox="0 0 64 64" style="enable-background:new 0 0 512 512" xml:space="preserve" class=""><g><g xmlns="http://www.w3.org/2000/svg"><g><path d="m48.414 33c-.263-.263-.414-.628-.414-1s.151-.737.414-1l.442-.442c.738-.738 1.144-1.718 1.144-2.762 0-1.489-.827-2.828-2.159-3.494l-1.323-.661c-.319-.16-.518-.481-.518-.838 0-.25.098-.486.274-.663l.298-.298c.921-.921 1.428-2.145 1.428-3.447 0-1.859-1.033-3.529-2.695-4.36l-2.069-1.035h-.236v1h-20v-1h-.236l-2.069 1.035c-1.662.831-2.695 2.501-2.695 4.36 0 1.302.507 2.526 1.428 3.447l.298.298c.176.177.274.412.274.663 0 .357-.199.679-.518.838l-1.323.661c-1.332.666-2.159 2.005-2.159 3.494 0 1.043.406 2.024 1.144 2.762l.442.442c.263.263.414.628.414 1s-.151.737-.414 1l-.476.476c-.716.716-1.11 1.667-1.11 2.679 0 .75.22 1.478.636 2.102l.675 1.012c1.158-1.455 2.845-2.398 4.699-2.604l5.99-.665 1.02-3.059h.013c-2.407-1.379-4.033-3.968-4.033-6.941v-5.292c0-1.636.996-3.106 2.514-3.714l2.112-.845-.011-.039c.706 1.131 1.953 1.89 3.385 1.89h4c2.209 0 4 1.791 4 4v4c0 2.973-1.626 5.562-4.033 6.941h.013l1.02 3.059 6.216.956c1.76.271 3.308 1.106 4.482 2.299l.665-.998c.417-.624.637-1.351.637-2.102 0-1.012-.394-1.963-1.11-2.679z" fill="#db8686" data-original="#f0bc5e" style=""/></g><g><circle cx="29" cy="22" r="1" fill="#000000" data-original="#000000" style=""/><circle cx="37" cy="22" r="1" fill="#000000" data-original="#000000" style=""/><path d="m33 31c2.757 0 5-2.243 5-5v-1h-10v1c0 2.757 2.243 5 5 5zm2.829-4c-.413 1.164-1.525 2-2.829 2s-2.416-.836-2.829-2z" fill="#000000" data-original="#000000" style=""/><path d="m44.368 35.968-5.612-.864-.584-1.751c2.311-1.63 3.828-4.316 3.828-7.353v-4c0-2.757-2.243-5-5-5h-4c-1.302 0-2.402-.839-2.816-2h13.816v-4.586l.878-.878c.724-.723 1.122-1.685 1.122-2.707 0-2.112-1.717-3.829-3.829-3.829h-1.11c-.881-1.206-2.295-2-3.899-2h-8.324c-1.604 0-3.018.794-3.899 2h-1.11c-2.112 0-3.829 1.717-3.829 3.829 0 1.022.398 1.984 1.122 2.707l.878.878v4.586h6.112c.043.209.088.417.156.616l-1.125.45c-1.909.763-3.143 2.585-3.143 4.642v5.292c0 3.037 1.517 5.723 3.828 7.353l-.574 1.723-5.354.595c-2.186.243-4.197 1.391-5.516 3.151l-3.134 4.178c-.806 1.075-1.25 2.407-1.25 3.75 0 3.446 2.804 6.25 6.25 6.25h1.75v10h15c2.061 0 4.046-.712 5.642-2h.358c6.065 0 11-4.935 11-11v-5.137c0-4.474-3.209-8.215-7.632-8.895zm-2.197-30.968c1.009 0 1.829.82 1.829 1.829 0 .488-.19.947-.536 1.293l-.878.878h-1.717l.319-.479c.531-.796.812-1.725.812-2.683 0-.287-.037-.565-.085-.838zm-13.333-2h8.324c1.565 0 2.838 1.273 2.838 2.838 0 .563-.165 1.106-.477 1.574l-1.058 1.588h-10.93l-1.059-1.588c-.311-.468-.476-1.012-.476-1.574 0-1.565 1.273-2.838 2.838-2.838zm-5.009 2h.256c-.048.273-.085.551-.085.838 0 .958.281 1.887.813 2.684l.319.478h-1.717l-.878-.878c-.347-.346-.537-.805-.537-1.293 0-1.009.82-1.829 1.829-1.829zm.171 6h18v2h-18zm2 15v-5.292c0-1.234.74-2.327 1.886-2.786l1.412-.565c.915 1.009 2.236 1.643 3.702 1.643h4c1.654 0 3 1.346 3 3v4c0 3.86-3.14 7-7 7s-7-3.14-7-7zm7 9c1.199 0 2.342-.24 3.39-.668l.455 1.365c-1.036.843-2.319 1.303-3.674 1.303h-.343c-1.354 0-2.637-.46-3.673-1.304l.455-1.365c1.048.429 2.191.669 3.39.669zm-11 26v-8h2.11c-.068.326-.11.66-.11 1 0 2.826 1.312 5.349 3.356 7zm7.468-14.946-3.468-3.468c0-.875.711-1.586 1.586-1.586l3.903 3.903c-.383.313-.713.694-.961 1.133-.175-.024-.351-.036-.528-.036-.182 0-.356.03-.532.054zm-1.43 4.295c-.021-.114-.038-.229-.038-.349 0-1.351 1.415-2.385 2.744-1.852l1.043.418.294-1.085c.236-.872 1.025-1.481 1.919-1.481s1.683.609 1.919 1.481l.294 1.085 1.043-.418c1.329-.534 2.744.501 2.744 1.852 0 .12-.017.235-.038.349l-.125.7.62.348c.603.339 1.061.872 1.316 1.489-.248.067-.504.114-.773.114h-14.8c.243-.662.701-1.242 1.343-1.603l.62-.348zm9.962 4.651h2v4h-2c-1.103 0-2-.897-2-2s.897-2 2-2zm-5 6c-3.519 0-6.432-2.613-6.92-6h8.477c-.345.591-.557 1.268-.557 2 0 1.762 1.153 3.244 2.737 3.776-.563.145-1.146.224-1.737.224zm17-11c0 4.624-3.507 8.441-8 8.941v-4.042c2.279-.465 4-2.484 4-4.899v-7h-2v7c0 .652-.215 1.252-.569 1.744-.345-.666-.822-1.263-1.431-1.722 0-.008 0-.015 0-.022 0-2.206-1.794-4-4-4-.177 0-.353.012-.528.036-.697-1.234-2.014-2.036-3.472-2.036-.185 0-.368.013-.547.039l-4.453-4.453c-.378-.378-.88-.586-1.414-.586-1.977 0-3.586 1.609-3.586 3.586 0 .534.208 1.036.586 1.414l1 1h-3.586v-4h-2v4h-4v2h11.382c-.84.734-1.382 1.8-1.382 3v.022c-.373.281-.696.614-.973.978h-6.777c-2.343 0-4.25-1.907-4.25-4.25 0-.913.302-1.819.85-2.55l3.134-4.177c.989-1.32 2.497-2.181 4.137-2.364l5.544-.616c1.43 1.26 3.242 1.956 5.165 1.956h.343c1.915 0 3.719-.69 5.146-1.939l5.747.884c3.438.53 5.934 3.439 5.934 6.919z" fill="#000000" data-original="#000000" style=""/></g></g></g></svg>
