<?xml version="1.0"?>
<svg xmlns="http://www.w3.org/2000/svg" xmlns:xlink="http://www.w3.org/1999/xlink" xmlns:svgjs="http://svgjs.com/svgjs" version="1.1" width="512" height="512" x="0" y="0" viewBox="0 0 64 64" style="enable-background:new 0 0 512 512" xml:space="preserve" class=""><g><g xmlns="http://www.w3.org/2000/svg"><g><g><path d="m38 18h1c1.363 0 2.501.915 2.866 2.161h.191l.246-.642c.463-1.204.697-2.467.697-3.755v-1.764h-5z" fill="#db8686" data-original="#f0bc5e" style=""/></g><g><path d="m17 15.764c0 1.288.234 2.551.696 3.755l.246.642h.191c.366-1.246 1.504-2.161 2.867-2.161h1v-4h-5z" fill="#db8686" data-original="#f0bc5e" style=""/></g></g><g><g><path d="m14.392 23.337.66 1.98c.731-.804 1.776-1.317 2.948-1.317h2.878l-.01-.013c-1.594-.071-2.868-1.375-2.868-2.987 0-.271.047-.528.115-.777l-.009-.013-1.211-2.421c-.549-1.096-1.669-1.789-2.895-1.789s-2.346.693-2.894 1.789l-4.606 9.211h2.646c1.525 0 2.896-.847 3.578-2.211l.758-1.516c.177-.356.784-.312.91.064z" fill="#db8686" data-original="#f0bc5e" style=""/></g></g><g><path d="m51.786 15.258c-.489-.782-1.347-1.258-2.27-1.258-.94 0-1.812.493-2.296 1.3l-5.22 8.7c1.737 0 3.201 1.114 3.754 2.662l2.601-3.468c.234-.313.802-.172.866.211l.542 3.256c.119.718.506 1.325 1.043 1.744.334-.251.744-.405 1.194-.405.647 0 1.216.312 1.581.788.145-.059.286-.127.419-.209v-5.579c0-.552.448-1 1-1h1z" fill="#db8686" data-original="#f0bc5e" style=""/></g><g><circle cx="26" cy="20" r="1" fill="#000000" data-original="#000000" style="" class=""/><circle cx="34" cy="20" r="1" fill="#000000" data-original="#000000" style="" class=""/><path d="m27 27h4c2.206 0 4-1.794 4-4h-2c0 1.103-.897 2-2 2h-4z" fill="#000000" data-original="#000000" style="" class=""/><path d="m63 28c0-1.654-1.346-3-3-3h-1v-2c0-1.103-.897-2-2-2h-.446l-3.92-6.272c-.676-1.082-1.842-1.728-3.118-1.728-1.283 0-2.491.684-3.153 1.785l-3.415 5.692c-.26-1.957-1.921-3.477-3.948-3.477v-2h4c1.103 0 2-.897 2-2v-2c0-1.103-.897-2-2-2h-.159c-.994-4.618-5.103-8-9.903-8h-5.875c-4.801 0-8.91 3.382-9.903 8h-.16c-1.103 0-2 .897-2 2v2c0 1.103.897 2 2 2h4v2c-1.093 0-2.082.442-2.805 1.154l-.406-.812c-.722-1.445-2.174-2.342-3.789-2.342s-3.067.897-3.789 2.342l-8.935 17.869c-.18.361-.276.767-.276 1.171 0 1.443 1.175 2.618 2.618 2.618h7.044c-1.056 1.699-1.662 3.693-1.662 5.808v8.192c0 3.309 2.691 6 6 6v2h-14v2h62v-2h-4v-20h1c1.654 0 3-1.346 3-3 0-1.208-.722-2.245-1.753-2.72 1.114-1.363 1.753-3.074 1.753-4.885zm-2 0v2.395c0 .204-.016.405-.037.605h-4.963c-.552 0-1-.449-1-1v-2c0-.551.448-1 1-1h4c.552 0 1 .449 1 1zm-46 15v4h-4v-2.192c0-4.137 2.803-7.728 6.816-8.731l1.184-.297v11.22h-2v-4zm6-18c0 2.849 1.997 5.236 4.664 5.845l-.44 1.318-7.893 1.974c-.824.206-1.601.508-2.332.88v-7.017c0-1.654 1.346-3 3-3zm18 0h3c1.654 0 3 1.346 3 3v8.064c-1.37-1.09-2.957-1.907-4.668-2.374l-5.552-1.514-.444-1.331c2.667-.609 4.664-2.996 4.664-5.845zm14 31.164c-.794.532-1.728.836-2.689.836-1.692 0-3.285-.901-4.156-2.354l-1.155-1.925v-4.307l3.644-3.644.478.876-1.106 6.177 1.969.354.389-2.177h2.626zm-12-7.164h2v6h-2zm4-3.414v-2.586h-2v4h-2v-10.972c2.354.947 4.346 2.694 5.569 4.936l1.077 1.975zm-10 9.414h-4v-6h4zm-10-3.444v-2.556h4v6h-2c0-1.474-.81-2.75-2-3.444zm-4-16.276 2-.5v16.22h-2zm8 3.72v-2.5l1 .75 1-.75v2.5zm-2-4v4c0 1.103.897 2 2 2v6h-4v-12.72l.78-.195zm8 12h-4v-6c1.103 0 2-.897 2-2v-4l1.209-.906.791.215zm-2.721-16 .544 1.632-2.823 2.118-2.823-2.118.544-1.632zm-13.279 18v2h-2v-2zm-2 4h2v4h-2zm4 0h2c1.103 0 2 .897 2 2s-.897 2-2 2h-2zm2 6v2h-2v-2zm2-.556c.599-.349 1.094-.845 1.444-1.444h2.556v4h-4zm6-1.444h4v4h-4zm6-22.145 2 .545v25.6h-2zm4 22.145h2v4h-2zm4-.534c1.289 1.58 3.245 2.534 5.311 2.534.931 0 1.842-.214 2.689-.577v2.577h-8zm8-8.466h-2.268l1.254-7.001c.005 0 .009.001.014.001h1zm-.586-13-.535-.535c-.566-.567-.879-1.32-.879-2.122v-2.343c0-.551.448-1 1-1s1 .449 1 1v5zm2.586-2.184c.314.112.648.184 1 .184h1v2h-2zm4 1.93v-1.746h1.37c-.337.66-.797 1.255-1.37 1.746zm-2-9.746h-1c-.352 0-.686.072-1 .184v-2.184h2zm-8.923-9.185c.302-.503.854-.815 1.439-.815.582 0 1.114.295 1.423.788l3.344 5.351c-.749.289-1.283 1.012-1.283 1.861v4.184c-.314-.112-.648-.184-1-.184-1.654 0-3 1.346-3 3v2.343c0 1.21.446 2.342 1.229 3.248-.742.547-1.229 1.419-1.229 2.409 0 .921.426 1.736 1.082 2.287l-.397 2.214-1.36-2.494c-.38-.696-.829-1.345-1.325-1.955v-10.052c0-2.196-1.432-4.045-3.405-4.715zm-7.077 5.185c0 1.103-.897 2-2 2v-4c1.103 0 2 .897 2 2zm-.223-12h-3.846c-.256-2.352-1.405-4.467-3.197-5.959 3.359.329 6.163 2.724 7.043 5.959zm-11.858-5.341 1.081-.541 1.081.541c2.115 1.057 3.529 3.049 3.85 5.341h-9.861c.32-2.292 1.734-4.284 3.849-5.341zm-2.653-.618c-1.792 1.492-2.941 3.607-3.197 5.959h-3.846c.88-3.235 3.684-5.63 7.043-5.959zm-9.266 7.959h26l.001 2h-26.001zm7.465 4 1.703 2.555 1.664-1.109-.964-1.446h1.596l1.703 2.555 1.664-1.109-.963-1.446h1.596l1.703 2.555 1.664-1.109-.963-1.446h2.132v10c0 2.206-1.794 4-4 4h-6c-2.206 0-4-1.794-4-4v-10zm-3.465 4v4c-1.103 0-2-.897-2-2s.897-2 2-2zm-17.382 18c-.341 0-.618-.277-.618-.618 0-.096.022-.191.065-.276l8.935-17.87c.381-.762 1.147-1.236 2-1.236s1.619.474 2 1.236l1.064 2.128c-.033.209-.064.418-.064.636 0 .749.22 1.443.579 2.043-2.557.217-4.579 2.344-4.579 4.957v8.328c-.258.213-.505.437-.741.672zm7.382 16v-4h4v2.382l-3.982 1.991c-.012-.123-.018-.247-.018-.373zm.705 2.266 3.295-1.648v3.382c-1.365 0-2.573-.687-3.295-1.734zm5.295 3.734h2v2h-2zm40 2h-2v-20h2zm3-22h-8c-.552 0-1-.448-1-1s.448-1 1-1h8c.552 0 1 .448 1 1s-.448 1-1 1z" fill="#000000" data-original="#000000" style="" class=""/></g></g></g></svg>
